<?xml version="1.0" encoding="utf-8"?>
<!-- Generator: Adobe Illustrator 27.2.0, SVG Export Plug-In . SVG Version: 6.00 Build 0)  -->
<svg version="1.1" id="Layer_1" xmlns="http://www.w3.org/2000/svg" xmlns:xlink="http://www.w3.org/1999/xlink" x="0px" y="0px"
	 viewBox="0 0 539 122.17" style="enable-background:new 0 0 539 122.17;" xml:space="preserve">
<style type="text/css">
	.st0{fill:#1F96C3;}
</style>
<path class="st0" d="M88.33,83.68c0.85,2.99,1.47,5.88,2.56,8.6c1.32,3.31,2.88,6.52,5.46,9.04c1.7,1.65,3.67,3.04,5.98,3.79
	c0.27,0.09,0.55,0.09,0.71,0.36c-4.81,4.51-10.17,8.21-16.17,10.99c-4.77,2.21-9.74,3.75-14.91,4.75
	c-4.82,0.93-9.69,1.07-14.55,0.88c-3.28-0.13-6.55-0.64-9.78-1.38c-4.9-1.11-9.61-2.77-14.07-5.06c-4.59-2.35-8.8-5.24-12.71-8.64
	c-4.08-3.54-7.66-7.5-10.63-11.96c-2.6-3.91-4.73-8.09-6.4-12.52c-1.37-3.63-2.3-7.37-3.05-11.15c-0.31-1.58-0.43-3.27-0.61-4.9
	c-0.25-2.31-0.08-4.6-0.16-6.9c-0.13-3.91,0.52-7.75,1.34-11.55c1.53-7.16,4.3-13.8,8.29-19.96c2.04-3.14,4.33-6.06,6.88-8.81
	c5.5-5.92,12-10.42,19.32-13.8c5.07-2.34,10.39-3.88,15.89-4.73c2.14-0.33,4.34-0.34,6.48-0.59c2.68-0.31,5.32-0.08,7.94,0.13
	c5.9,0.47,11.66,1.74,17.18,3.97c3.54,1.43,6.92,3.14,10.19,5.09c0.61,0.37,1.24,0.63,0.97,1.64c-1.19,4.6-2.29,9.23-3.45,13.84
	c-1.01,4.01-2.1,8-3.12,12c-0.71,2.79-1.46,5.56-2.33,8.3c-0.04,0.14-0.01,0.33-0.26,0.34c-2.71-5.75-6.06-11.14-9.58-16.43
	c-2.89-4.34-6.4-8.05-11.26-10.23c-4.24-1.9-8.62-2.72-13.31-2.11c-3.69,0.49-7.29,1.16-10.78,2.44c-3.59,1.33-6.92,3.12-9.79,5.68
	c-7.28,6.51-11.4,14.79-13.64,24.15c-1.48,6.16-1.85,12.43-1.36,18.68c0.75,9.47,3.88,18.18,10.01,25.56
	c5.06,6.09,11.61,9.84,19.41,11.53c4.37,0.95,8.77,1.15,13.15,0.81c6.69-0.53,12.98-2.52,18.43-6.64c2.79-2.11,5.13-4.64,7.17-7.49
	c1.59-2.23,2.93-4.57,4.07-7.04C87.95,84.18,88.1,84.01,88.33,83.68z"/>
<path class="st0" d="M437.02,53.71c1.22-0.83,2.04-2.08,3.03-3.13c1.89-1.97,4.31-3,6.52-4.41c1.22-0.78,2.6-1.14,3.81-1.25
	c2.29-0.21,4.62-0.73,6.93-0.28c0.97,0.19,1.95,0.1,2.92,0.35c0.83,0.21,1.65,0.41,2.48,0.68c3.22,1.04,5.61,3.09,7.59,5.69
	c0.56,0.73,0.81,1.68,1.26,2.5c0.63,1.16,1.03,1.2,1.87,0.2c2.15-2.59,4.67-4.73,7.59-6.46c2.82-1.67,5.86-2.34,9.03-2.83
	c3.88-0.6,7.6,0.22,11.32,1.02c0.76,0.17,1.39,0.85,2.14,1.15c2.06,0.82,3.56,2.37,4.88,3.99c0.93,1.14,1.28,2.75,2.05,4.05
	c1.43,2.43,1.47,5.15,1.62,7.8c0.63,10.63,0.14,21.28,0.26,31.92c0.05,4.39-0.02,8.78,0.03,13.17c0.01,0.87-0.18,1.15-1.11,1.13
	c-3.56-0.06-7.12-0.06-10.67,0c-0.99,0.02-1.26-0.23-1.26-1.24c0.04-12.57,0.07-25.15-0.01-37.72c-0.02-2.93-0.19-5.88-1.12-8.74
	c-1.08-3.3-3.47-4.92-6.7-5.49c-3.04-0.54-6.02-0.27-8.9,0.92c-3.31,1.37-5.57,3.79-6.92,7.03c-0.92,2.22-1.22,4.59-1.21,7.02
	c0.04,12.37,0,24.75,0.04,37.12c0,0.95-0.31,1.1-1.16,1.09c-3.48-0.04-6.96-0.07-10.43,0.01c-1.12,0.02-1.46-0.2-1.45-1.4
	c0.05-12.53,0.1-25.07-0.02-37.6c-0.03-2.83-0.07-5.72-1.02-8.51c-1.14-3.34-3.43-5.11-6.81-5.69c-0.72-0.12-1.45-0.17-2.14-0.5
	c-0.46-0.22-0.93,0.28-1.48,0.3c-6.88,0.26-11.99,4.82-12.99,11.51c-0.21,1.4-0.26,2.77-0.26,4.17c0.03,12.13,0,24.27,0.04,36.4
	c0,1.03-0.21,1.35-1.3,1.33c-3.56-0.08-7.11-0.05-10.67-0.01c-0.8,0.01-0.99-0.24-0.98-1.01c0.02-20.28,0.02-40.55,0-60.83
	c0-0.7,0.13-0.97,0.91-0.96c3.72,0.04,7.43,0.03,11.15,0.01c0.68-0.01,0.9,0.19,0.88,0.88c-0.04,2.19-0.02,4.39-0.03,6.58
	c-0.18,0.17-0.3,0.44-0.04,0.52C436.92,54.26,436.99,53.93,437.02,53.71z"/>
<path class="st0" d="M45.77,96.52c-2.56-1.61-4.54-3.77-6.01-6.39c-1.19-2.12-2.27-4.31-3.04-6.61c-0.8-2.35-1.33-4.79-1.71-7.25
	c-0.27-1.82-0.64-3.64-0.67-5.47c-0.02-1.29,0.06-2.6,0.08-3.9c0.05-4.18,0.03-8.37,0.11-12.55c0.14-7.26,1.62-14.22,5.07-20.65
	c1.48-2.76,3.64-5,6.16-6.87c0.09-0.06,0.17-0.12,0.26-0.18c0.15-0.1,0.31-0.2,0.46-0.3c0.09-0.06,0.17-0.12,0.26-0.17
	c0.33-0.18,0.66-0.36,0.99-0.55c0.07-0.05,0.14-0.11,0.2-0.16c3.43-1.68,7-2.19,10.78-1.44c5.82,1.17,9.56,5.15,13.16,9.39
	c1.65,1.95,2.79,4.22,3.87,6.46c0.9,1.86,1.69,3.84,2.39,5.82c1.12,3.13,2.34,6.22,3.43,9.36c0.45,1.31,0.65,2.72,0.16,4.08
	c-1.35,3.75-2.79,7.47-4.09,11.24c-1.59,4.62-3.43,9.14-5.21,13.69c-0.31,0.79-0.64,1.58-0.96,2.37c0,0.08-0.01,0.16-0.01,0.25
	c-0.81,1.74-1.73,3.41-2.72,5.05c-0.07,0.04-0.12,0.09-0.15,0.17c-1.85,1.68-3.38,3.72-5.68,4.87c-0.6,0.3-1.18,0.63-1.77,0.94
	c-0.07,0.06-0.15,0.13-0.22,0.19c-0.9,0.26-1.8,0.51-2.7,0.78c-4.39,1.29-8.42,0.43-12.19-1.99C45.93,96.63,45.85,96.58,45.77,96.52
	z"/>
<path class="st0" d="M331.96,101.89c-0.91,0.52-1.23,1.23-1.75,1.74c-3.27,3.21-7.03,5.5-11.58,6.62c-3.16,0.77-6.32,0.83-9.44,0.57
	c-4.71-0.39-9.05-2.09-12.85-4.97c-3.04-2.3-5.45-5.14-7.35-8.46c-2.31-4.02-3.6-8.39-4.21-12.91c-0.55-4.04-0.45-8.14-0.09-12.22
	c0.25-2.91,0.89-5.73,1.79-8.47c1.07-3.26,2.67-6.28,4.74-9.06c2.51-3.37,5.62-5.96,9.42-7.7c3-1.38,6.16-2.04,9.48-2.31
	c3.89-0.31,7.65,0.06,11.3,1.31c3.88,1.32,7.1,3.65,9.65,6.88c0.21,0.26,0.28,0.81,0.71,0.67c0.4-0.13,0.19-0.63,0.19-0.95
	c0.01-10.02,0.03-20.03-0.02-30.05c0-1.08,0.25-1.41,1.36-1.39c3.48,0.08,6.95,0.05,10.43,0.01c0.86-0.01,1.17,0.18,1.17,1.11
	c-0.03,28.53-0.02,57.06,0,85.59c0,0.9-0.24,1.14-1.14,1.13c-3.56-0.05-7.11-0.06-10.67,0.01c-1.01,0.02-1.18-0.34-1.15-1.22
	C332,105.91,331.96,104.01,331.96,101.89z M331.78,77.64c0.06-2.87-0.4-5.66-0.99-8.45c-1.2-5.72-5.19-12.88-13.84-13.91
	c-6.71-0.8-12,1.65-15.63,7.34c-3.11,4.88-4.09,10.32-3.94,16.06c0.09,3.38,0.61,6.64,1.75,9.82c1.32,3.69,3.34,6.92,6.59,9.16
	c3.46,2.38,7.35,3.23,11.56,2.48c4.28-0.76,7.71-2.78,10.21-6.4C330.84,88.86,331.68,83.35,331.78,77.64z"/>
<path class="st0" d="M190.42,55.86c3.03-3.01,6.07-6.01,9.1-9.02c0.34-0.33,0.63-0.67,1.2-0.67c5.07,0.02,10.14,0.01,15.45,0.01
	c-0.41,0.44-0.68,0.76-0.97,1.05c-5.31,5.23-10.57,10.53-15.98,15.66c-2.11,2-4.13,4.08-6.27,6.06c-0.46,0.43-0.52,0.69-0.16,1.23
	c4.51,6.73,8.9,13.55,13.52,20.21c4.21,6.07,8.16,12.31,12.44,18.58c-0.48,0-0.81,0-1.14,0c-4.44,0-8.88-0.02-13.31,0.02
	c-0.82,0.01-1.31-0.25-1.7-0.93c-1.14-1.99-2.4-3.9-3.6-5.84c-0.86-1.38-1.85-2.71-2.74-4.09c-2.03-3.14-4.14-6.22-6.04-9.43
	c-1.71-2.88-3.69-5.58-5.41-8.45c-0.06-0.1-0.18-0.17-0.24-0.27c-1.11-1.99-1.18-2.05-2.68-0.42c-1.83,2-3.95,3.71-5.89,5.6
	c-1.13,1.1-1.19,2.02-1.19,3.24c0,6.47-0.02,12.93,0.02,19.4c0.01,0.96-0.26,1.2-1.2,1.18c-3.56-0.05-7.12-0.04-10.67,0
	c-0.79,0.01-1.09-0.14-1.09-1.02c0.02-28.62,0.02-57.24,0-85.86c0-0.91,0.34-1.02,1.12-1.01c3.56,0.03,7.12,0.06,10.67-0.01
	c1-0.02,1.17,0.33,1.17,1.23c-0.02,15.81-0.02,31.61-0.02,47.42c0,0.42,0,0.84,0,1.6c1.36-1.37,2.48-2.53,3.63-3.67
	c3.91-3.88,7.83-7.75,11.74-11.63C190.26,55.98,190.34,55.92,190.42,55.86z"/>
<path class="st0" d="M274.15,81.18c0,5.35,0,10.7,0,16.04c0,0.63,0.05,1.25,0.2,1.88c0.64,2.65,1.84,3.68,4.6,3.62
	c1-0.02,1.32,0.24,1.25,1.24c-0.09,1.31-0.04,2.63-0.02,3.95c0.01,0.75-0.32,1.04-1.03,1.33c-2.97,1.2-6.08,1.08-9.14,0.88
	c-3.69-0.24-6.73-2.11-8.02-5.99c-0.77-2.3-0.79-2.29-2.5-0.53c-3.97,4.09-8.9,6.2-14.47,7.02c-2.62,0.39-5.26,0.45-7.86,0.21
	c-4.95-0.46-9.56-2.04-13.06-5.79c-2.46-2.63-3.86-5.82-4.4-9.45c-0.39-2.69-0.18-5.26,0.46-7.85c0.76-3.08,2.22-5.7,4.57-7.91
	c3.22-3.02,7.14-4.54,11.25-5.8c4.53-1.4,9.22-2.09,13.83-3.13c3-0.68,6.05-1.23,8.66-3.08c2.12-1.51,2.98-3.65,2.55-6.19
	c-0.17-1.03-0.34-2-0.86-2.91c-1.17-2.04-3.19-2.94-5.28-3.39c-4.19-0.9-8.4-0.75-12.57,0.36c-3.88,1.04-5.98,3.66-6.8,7.46
	c-0.07,0.31-0.15,0.61-0.21,0.93c-0.36,1.98-0.36,1.98-2.4,1.98c-3.12,0-6.24-0.02-9.35,0.02c-0.77,0.01-1.04-0.17-0.98-1
	c0.31-4.2,1.53-8.07,4.05-11.48c3.65-4.95,8.82-7.26,14.67-8.31c3.49-0.62,7.02-0.91,10.56-0.73c5,0.25,9.88,1.03,14.19,3.82
	c4.42,2.86,6.63,7.14,7.61,12.16c0.58,2.95,0.49,5.94,0.49,8.92C274.15,73.36,274.15,77.27,274.15,81.18z M261.24,75.88
	c-2.07,1.15-4.11,1.83-6.18,2.42c-2.1,0.59-4.24,1.08-6.38,1.53c-3.35,0.72-6.69,1.53-9.81,3.02c-4.11,1.96-6.57,4.96-6.19,9.76
	c0.22,2.77,1.27,5.07,3.73,6.54c1.88,1.13,3.99,1.53,6.12,1.65c2.15,0.13,4.28-0.27,6.37-0.73c6.4-1.42,11.29-5.08,12.19-12.74
	C261.52,83.61,261.18,79.84,261.24,75.88z"/>
<path class="st0" d="M413.89,89.81c-0.82,3.48-2.26,6.58-4.21,9.44c-3.73,5.44-8.93,8.79-15.2,10.62c-4.3,1.25-8.71,1.22-13.09,0.96
	c-5.33-0.31-10.25-2.18-14.71-5.07c-2.36-1.53-4.25-3.62-6.03-5.83c-2.49-3.1-4.25-6.57-5.36-10.33c-1.1-3.7-1.65-7.52-1.51-11.41
	c0.07-1.87-0.27-3.77-0.02-5.6c0.46-3.4,1.26-6.74,2.59-9.93c0.66-1.59,1.08-3.37,2.1-4.7c1.39-1.84,2.73-3.74,4.39-5.39
	c1.87-1.85,3.91-3.49,6.18-4.7c1.86-1,3.93-1.66,6.03-2.2c1.68-0.43,3.39-0.82,5.06-1c2.12-0.23,4.32-0.34,6.47-0.02
	c0.43,0.06,0.86,0.15,1.29,0.13c2.74-0.12,5.29,0.67,7.88,1.4c1.83,0.51,3.42,1.49,5.06,2.3c0.94,0.46,1.94,1.27,2.85,1.94
	c0.96,0.71,1.49,1.88,2.68,2.31c0.73,0.27,0.6,1.21,1.13,1.74c1.24,1.22,2.12,2.78,2.99,4.22c1.14,1.89,1.65,4.17,2.34,6.32
	c1.53,4.8,1.91,9.78,2.16,14.77c0.05,0.95-0.24,1.19-1.18,1.19c-15.19-0.03-30.38-0.01-45.57-0.05c-1.19,0-1.54,0.24-1.47,1.48
	c0.44,8.09,5.11,15.77,14.35,17.61c5.41,1.08,10.7,0.14,15.16-3.35c1.97-1.54,3.63-3.53,4.37-6.06c0.15-0.49,0.38-0.8,0.97-0.79
	C405.64,89.82,409.71,89.81,413.89,89.81z M384.4,71.37c5.39,0,10.79-0.01,16.18,0.01c0.87,0,1.37,0.15,1.25-1.21
	c-0.39-4.58-1.98-8.43-5.6-11.42c-2.98-2.47-6.42-3.68-10.2-3.88c-3.51-0.18-6.94,0.23-10.18,1.84c-5.57,2.77-8.51,7.25-9.12,13.36
	c-0.1,1.01,0.15,1.34,1.25,1.33C373.45,71.33,378.92,71.37,384.4,71.37z"/>
<path class="st0" d="M105.87,94.59c-3.97,0.24-6.78-2.52-8.31-6.13c-1.5-3.55-2.44-7.28-3.87-10.84c-1.01-2.51-0.72-5.03,0.01-7.58
	c2.75-9.57,5.45-19.15,8.16-28.73c1.77-6.26,3.57-12.51,5.27-18.79c0.29-1.07,0.56-0.88,1.08-0.29c1.73,1.99,3.28,4.13,4.64,6.37
	c2.75,4.52,5.06,9.26,6.6,14.34c1.18,3.9,2.06,7.85,2.39,11.92c0.2,2.44,0.61,4.89,0.42,7.33c-0.3,3.79-0.54,7.58-1.33,11.34
	c-1.12,5.34-2.89,10.39-5.34,15.23c-1.44,2.86-3.75,4.56-6.82,5.43C107.77,94.47,106.79,94.64,105.87,94.59z"/>
<path class="st0" d="M150.37,65.03c0,14.21-0.01,28.41,0.03,42.62c0,1.1-0.29,1.38-1.37,1.36c-3.48-0.07-6.95-0.07-10.43,0
	c-1.01,0.02-1.24-0.27-1.24-1.25c0.03-24.02,0.02-48.04,0.02-72.06c0-4.51,0.02-9.02-0.02-13.53c-0.01-0.84,0.23-1.08,1.07-1.07
	c3.6,0.04,7.19,0.06,10.79-0.01c0.98-0.02,1.17,0.31,1.17,1.21C150.36,36.53,150.37,50.78,150.37,65.03z"/>
<path class="st0" d="M525.09,77.47c0-9.94,0.03-19.88-0.03-29.82c-0.01-1.27,0.37-1.49,1.53-1.47c3.48,0.08,6.96,0.05,10.43,0.01
	c0.76-0.01,1.01,0.18,1.01,0.98c-0.02,20.28-0.02,40.55,0,60.83c0,0.81-0.26,0.98-1.01,0.98c-3.52-0.04-7.04-0.06-10.55,0.01
	c-1.05,0.02-1.4-0.21-1.4-1.35C525.11,97.59,525.09,87.53,525.09,77.47z"/>
<path class="st0" d="M531.89,35.7c-3.31,0.02-5.68-1.09-6.92-3.81c-1.78-3.92-0.15-8.91,4.87-9.67c2.77-0.42,5.18-0.02,7.26,1.9
	c2.94,2.71,2.75,9.12-2.58,11.08C533.54,35.57,532.57,35.8,531.89,35.7z"/>
<path class="st0" d="M437.02,53.71c-0.03,0.22-0.1,0.55-0.33,0.48c-0.26-0.08-0.14-0.35,0.04-0.52
	C436.83,53.68,436.93,53.69,437.02,53.71z"/>
<path class="st0" d="M47.93,25.47c-0.07,0.05-0.14,0.11-0.2,0.16C47.73,25.49,47.75,25.38,47.93,25.47z"/>
<path class="st0" d="M46.74,26.17c-0.09,0.06-0.17,0.12-0.26,0.17C46.52,26.23,46.57,26.11,46.74,26.17z"/>
<path class="st0" d="M46.02,26.64c-0.09,0.06-0.17,0.12-0.26,0.18C45.8,26.71,45.85,26.59,46.02,26.64z"/>
<path class="st0" d="M190.42,55.86c-0.08,0.06-0.16,0.12-0.25,0.17C190.21,55.91,190.27,55.81,190.42,55.86z"/>
<path class="st0" d="M71.45,86.68c0-0.08,0.01-0.16,0.01-0.25c0.05,0.06,0.11,0.12,0.16,0.18C71.56,86.64,71.51,86.66,71.45,86.68z"
	/>
<path class="st0" d="M68.58,91.9c0.03-0.07,0.08-0.13,0.15-0.17C68.8,91.9,68.73,91.94,68.58,91.9z"/>
<path class="st0" d="M45.77,96.52c0.08,0.05,0.17,0.11,0.25,0.16C45.86,96.74,45.81,96.64,45.77,96.52z"/>
<path class="st0" d="M60.91,97.9c0.07-0.06,0.15-0.13,0.22-0.19C61.12,97.85,61.06,97.93,60.91,97.9z"/>
</svg>
