<?xml version="1.0" encoding="utf-8"?>
<!-- Generator: Adobe Illustrator 27.2.0, SVG Export Plug-In . SVG Version: 6.00 Build 0)  -->
<svg version="1.1" id="Layer_1" xmlns="http://www.w3.org/2000/svg" xmlns:xlink="http://www.w3.org/1999/xlink" x="0px" y="0px"
	 viewBox="0 0 555.5 232.36" style="enable-background:new 0 0 555.5 232.36;" xml:space="preserve">
<style type="text/css">
	.st0{fill:#005695;}
	.st1{font-family:'ClearfaceGothicLTStd-Bold';
	    src: url('../fonts/clearfacegothicltstd-bold-webfont.woff2') format('woff2'),
         url('../fonts/clearfacegothicltstd-bold-webfont.woff') format('woff');}
	.st2{font-size:98.5127px;}
	.st3{font-size:54.5819px;}
	.st4{fill:#4FB948;}
	.st5{font-size:39.2719px;}
	.st6{font-family:'ArialMT';}
	.st7{font-size:23.2914px;}
</style>
<g>
	<text transform="matrix(1 0 0 1 243.2513 124.4934)" class="st0 st1 st2">Habitat</text>
</g>
<g>
	<text transform="matrix(1 0 0 1 246.0877 174.7034)" class="st0 st1 st3">for Humanity</text>
</g>
<g>
	<text transform="matrix(1 0 0 1 246.5789 222.5432)" class="st4 st1 st5">Indonesia</text>
</g>
<path class="st0" d="M110.64,93.86c-10.65,8.71-12.92,20.73-14.93,33.03c-2.31,14.13-4.95,28.22-7.77,42.26
	c-1.27,6.3-5.96,8.73-11.88,6.3c-1.54-0.63-3.05-3.11-3.28-4.9c-1.53-11.89-2.67-23.84-4.01-35.76c-0.57-5.13-1.39-10.24-1.95-15.37
	c-0.53-4.95-3.12-8.45-7.51-10.43c-4.69-2.12-9.55-3.88-14.36-5.73c-5.4-2.08-8.61-5.76-7.78-9.06c0.9-3.59,5.4-4.94,11.61-3.8
	c8.5,1.56,17,3.21,25.57,4.27c12.28,1.53,21.15-5.09,29.76-13.18c-1.56-1.71-2.86-3.18-4.21-4.61c-3.33-3.5-6.99-6.74-9.92-10.55
	c-1.61-2.09-3.55-6.27-2.65-7.48c2.43-3.25,6.62-2.75,9.92-0.64c3.78,2.41,7.15,5.44,10.82,8.05c15.17,10.78,25.59,10.64,40.53-0.5
	c3.6-2.69,6.92-5.87,10.82-8.01c2.09-1.14,5.13-0.53,7.74-0.71c-0.24,2.92,0.57,6.65-0.93,8.61c-4.1,5.38-9.18,10.01-14.05,15.13
	c9.69,10.79,21.04,16.06,35.31,13.59c6.56-1.13,13.08-2.47,19.6-3.81c6.79-1.4,11.11-0.24,12.26,3.43c1.08,3.45-2.33,7.23-8.46,9.52
	c-4.36,1.63-8.74,3.25-13,5.13c-4.94,2.18-7.75,5.98-8.31,11.52c-1.48,14.76-3.1,29.5-4.68,44.25c-0.16,1.49-0.47,2.96-0.62,4.46
	c-0.43,4.25-1.77,7.16-6.97,7.18c-4.95,0.02-7.81-1.49-8.73-6.65c-3.16-17.71-6.83-35.33-9.69-53.09
	c-1.56-9.66-7.32-16.41-14.09-24.66c-1.48,12.46-2.79,23.59-4.12,34.72c-1.68,14.06-3.25,28.13-5.12,42.16
	c-0.92,6.91-2.01,7.44-8.65,7.37c-3.79-0.04-5.89-1.38-6.36-5.32c-1.87-15.55-3.88-31.08-5.79-46.62
	c-1.08-8.77-2.05-17.55-3.13-26.31C111.48,96.39,111,95.19,110.64,93.86z"/>
<path class="st4" d="M0,52.2c8.78-5.61,16.37-10.69,24.18-15.41C41.42,26.39,58.9,16.35,76.06,5.79c11.3-6.95,21.97-7.81,34.32-1.67
	c34.28,17.05,69.03,33.17,103.58,49.66c1.2,0.57,2.35,1.26,3.54,1.85c2.96,1.48,6.36,3.55,4.74,7c-1.06,2.26-4.78,4.48-7.35,4.53
	c-4.14,0.09-8.64-0.94-12.42-2.7c-19.76-9.22-39.58-18.39-58.9-28.48c-10.87-5.67-20.49-5.63-30.97,0.49
	c-17.82,10.4-36.1,20.02-53.94,30.4c-10.37,6.04-20.26,6.43-30.67,0.47C19.19,62.32,10.17,57.68,0,52.2z"/>
<path class="st4" d="M25.56,106.29c8.83,4.39,16.62,7.71,23.75,12.09c2.93,1.8,5.83,5.7,6.35,9.02c2.24,14.18,3.58,28.5,5.25,42.77
	c-0.6,0.28-1.2,0.56-1.79,0.83c-6.47-5.06-13.1-9.92-19.37-15.21c-16.88-14.28-13.65-7.87-14.17-29.37
	C25.43,120.29,25.56,114.16,25.56,106.29z"/>
<path class="st0" d="M89.77,77.96c-0.04,5.6-4.65,10.01-10.31,9.83c-5.35-0.16-9.68-4.7-9.62-10.07c0.06-5.34,4.51-9.81,9.85-9.91
	C85.17,67.72,89.81,72.39,89.77,77.96z"/>
<path class="st0" d="M186.74,77.66c0.11,5.34-4.21,9.9-9.59,10.13c-5.56,0.23-10.31-4.25-10.39-9.8
	c-0.08-5.56,4.52-10.22,10.05-10.18C182.08,67.86,186.63,72.37,186.74,77.66z"/>
<path class="st0" d="M118.45,57.37c0.06-5.59,4.17-9.77,9.68-9.83c5.73-0.06,10.11,4.3,10.06,10.02
	c-0.05,5.67-4.62,10.08-10.24,9.89C122.54,67.28,118.39,62.86,118.45,57.37z"/>
<g>
	<text transform="matrix(1 0 0 1 538.3118 155.0202)" class="st0 st6 st7">®</text>
</g>
</svg>
