<?xml version="1.0" encoding="utf-8"?>
<!-- Generator: Adobe Illustrator 27.2.0, SVG Export Plug-In . SVG Version: 6.00 Build 0)  -->
<svg version="1.1" id="Layer_1" xmlns="http://www.w3.org/2000/svg" xmlns:xlink="http://www.w3.org/1999/xlink" x="0px" y="0px"
	 viewBox="0 0 297.25 117.83" style="enable-background:new 0 0 297.25 117.83;" xml:space="preserve">
<style type="text/css">
	.st0{fill:#4D88FF;}
	.st1{fill:#FFFFFF;}
	.st2{enable-background:new    ;}
	.st3{fill:#555555;}
</style>
<g id="blood-drop" transform="translate(79.639 55.445)">
	<path id="Path_1" class="st0" d="M-34.84-54.53c-0.85-1.05-2.4-1.22-3.45-0.36c-0.41,0.33-0.7,0.78-0.83,1.29
		c-0.51,0.96-3.01,4.36-5.65,7.96C-56.96-29.06-79.64,1.82-79.64,19.5c0,23.68,19.2,42.88,42.88,42.88S6.13,43.19,6.13,19.5
		C6.13-3.43-33.17-52.46-34.84-54.53L-34.84-54.53z"/>
</g>
<g id="check-mark" transform="translate(89.501 80.894)">
	<g id="Group_1">
		<path id="Path_2" class="st1" d="M-38.62,16.13c-3.4,3.41-8.93,3.41-12.33,0.01c0,0,0,0-0.01-0.01l-19.1-19.1
			c-3.4-3.41-3.4-8.93,0-12.33s8.93-3.4,12.33,0l11.38,11.38c0.86,0.86,2.25,0.86,3.12,0l30.81-30.82c3.4-3.41,8.93-3.41,12.33,0
			c3.41,3.4,3.41,8.93,0,12.33L-38.62,16.13z"/>
	</g>
</g>
<g class="st2">
	<path class="st0" d="M164.75,25.14l-11.52,37.2h-6.07l-8.27-27.63l-8.35,27.63h-6.04L113,25.14h6.07l8.61,29.18l8.61-29.18h5.19
		l8.61,29.13l8.61-29.13H164.75z"/>
	<path class="st0" d="M189.74,53.31h-17.69l-3.55,9.03h-6.02l14.73-37.2h7.37l14.73,37.2h-6.02L189.74,53.31z M187.77,48.2
		l-6.85-17.59l-6.9,17.59H187.77z"/>
	<path class="st0" d="M227.74,30.35h-13.07v31.98h-5.78V30.35h-13.13v-5.21h31.98V30.35z"/>
	<path class="st0" d="M237.63,30.35v10.58h18.39v4.98h-18.39v11.15h21.06v5.27h-26.74v-37.2h26.8v5.21H237.63z"/>
	<path class="st0" d="M279.96,48.54h-9.39v13.8h-5.76v-37.2h17.69c3.72,0,6.68,1.19,8.9,3.57c2.21,2.38,3.32,5.11,3.32,8.18
		c0,2.54-0.76,4.86-2.28,6.95c-1.52,2.09-3.64,3.49-6.35,4.2l9.6,14.29h-6.64L279.96,48.54z M270.57,43.43h11.62
		c2.09,0,3.77-0.64,5.05-1.92c1.27-1.28,1.91-2.82,1.91-4.62c0-1.8-0.63-3.35-1.88-4.64s-2.89-1.95-4.92-1.95h-11.78V43.43z"/>
</g>
<g class="st2">
	<path class="st3" d="M135.04,75.49c1.83,2.03,2.74,4.32,2.74,6.89c0,2.6-0.93,4.91-2.78,6.93c-1.85,2.01-4.31,3.02-7.38,3.02h-6.54
		v7.72h-6.46V72.45h13.28C130.83,72.45,133.21,73.47,135.04,75.49z M130.32,85.27c0.74-0.81,1.12-1.75,1.12-2.83
		c0-1.08-0.35-2.02-1.06-2.84c-0.71-0.81-1.58-1.22-2.64-1.22h-6.66v8.1h6.39C128.63,86.48,129.58,86.08,130.32,85.27z"/>
	<path class="st3" d="M143.67,96.5c-2.77-2.73-4.16-6.15-4.16-10.25c0-4.1,1.39-7.51,4.16-10.25c2.77-2.73,6.26-4.1,10.46-4.1
		c4.2,0,7.69,1.37,10.46,4.1s4.16,6.15,4.16,10.25c0,4.1-1.39,7.51-4.16,10.25c-2.77,2.73-6.26,4.1-10.46,4.1
		C149.93,100.6,146.44,99.24,143.67,96.5z M159.92,92.2c1.47-1.57,2.2-3.55,2.2-5.95c0-2.39-0.73-4.38-2.2-5.96
		c-1.47-1.58-3.4-2.37-5.79-2.37c-2.39,0-4.32,0.79-5.79,2.37c-1.47,1.58-2.2,3.56-2.2,5.96c0,2.39,0.73,4.37,2.2,5.95
		s3.4,2.36,5.79,2.36C156.52,94.56,158.45,93.77,159.92,92.2z"/>
	<path class="st3" d="M174.77,98.18c-2.26-1.62-3.82-3.6-4.69-5.95l6.23-1.92c0.55,1.36,1.44,2.46,2.67,3.31s2.71,1.27,4.45,1.27
		c1.28,0,2.32-0.26,3.12-0.77c0.79-0.51,1.19-1.12,1.19-1.83c0-1.13-0.99-2.01-2.96-2.66l-7.1-2.19c-1.92-0.6-3.46-1.54-4.61-2.8
		c-1.15-1.26-1.71-2.76-1.68-4.49c-0.03-2.28,0.93-4.23,2.88-5.83s4.38-2.41,7.32-2.41c2.91,0,5.48,0.7,7.71,2.11
		c2.23,1.4,3.72,3.12,4.47,5.15l-6.02,1.77c-0.55-0.97-1.37-1.77-2.46-2.39c-1.09-0.62-2.3-0.92-3.62-0.92
		c-1.1,0-1.99,0.21-2.66,0.64s-1,0.97-1,1.63c0,0.95,0.62,1.61,1.85,1.98l6.95,2.21c2.41,0.76,4.27,1.71,5.59,2.85
		c1.31,1.14,1.97,2.78,1.97,4.91c0,2.5-1.04,4.59-3.14,6.25s-4.82,2.5-8.18,2.5C179.78,100.6,177.02,99.79,174.77,98.18z"/>
	<path class="st3" d="M197.74,72.45h6.62v27.59h-6.62V72.45z"/>
	<path class="st3" d="M231.26,78.38h-8.79v21.67h-6.54V78.38h-8.77v-5.93h24.11V78.38z"/>
	<path class="st3" d="M234.04,72.45h6.62v27.59h-6.62V72.45z"/>
	<path class="st3" d="M271.54,72.45l-10.76,27.59h-7.18l-10.76-27.59h7.25l7.08,19.2l7.14-19.2H271.54z"/>
	<path class="st3" d="M280.12,78.38v4.79h12.37v5.71h-12.37v5.25h14.33v5.91h-20.72V72.45h20.76v5.93H280.12z"/>
</g>
</svg>
